<svg width="24" height="24" viewBox="0 0 24 24" fill="none" xmlns="http://www.w3.org/2000/svg">
<path fill-rule="evenodd" clip-rule="evenodd" d="M12 4C11.2044 4 10.4413 4.31607 9.87868 4.87868C9.31607 5.44129 9 6.20435 9 7C9 7.79565 9.31607 8.55871 9.87868 9.12132C10.4413 9.68393 11.2044 10 12 10C12.7956 10 13.5587 9.68393 14.1213 9.12132C14.6839 8.55871 15 7.79565 15 7C15 6.20435 14.6839 5.44129 14.1213 4.87868C13.5587 4.31607 12.7956 4 12 4ZM8.46447 3.46447C9.40215 2.52678 10.6739 2 12 2C13.3261 2 14.5979 2.52678 15.5355 3.46447C16.4732 4.40215 17 5.67392 17 7C17 8.32608 16.4732 9.59785 15.5355 10.5355C14.5979 11.4732 13.3261 12 12 12C10.6739 12 9.40215 11.4732 8.46447 10.5355C7.52678 9.59785 7 8.32608 7 7C7 5.67392 7.52678 4.40215 8.46447 3.46447ZM6.34315 15.3431C7.84344 13.8429 9.87827 13 12 13C14.1217 13 16.1566 13.8429 17.6569 15.3431C19.1571 16.8434 20 18.8783 20 21C20 21.5523 19.5523 22 19 22H5C4.73478 22 4.48043 21.8946 4.29289 21.7071C4.10536 21.5196 4 21.2652 4 21C4 18.8783 4.84285 16.8434 6.34315 15.3431ZM12 15C10.4087 15 8.88258 15.6321 7.75736 16.7574C6.87067 17.6441 6.29016 18.7797 6.08389 20H17.9161C17.7098 18.7797 17.1293 17.6441 16.2426 16.7574C15.1174 15.6321 13.5913 15 12 15Z" fill="black"/>
</svg>
