<svg width="24" height="24" viewBox="0 0 24 24" fill="none" xmlns="http://www.w3.org/2000/svg">
<path fill-rule="evenodd" clip-rule="evenodd" d="M8.70689 4.87889C9.26936 4.31631 10.0323 4.00017 10.8278 4H19C19.7957 4 20.5587 4.31607 21.1213 4.87868C21.6839 5.44129 22 6.20435 22 7V17C22 17.7957 21.6839 18.5587 21.1213 19.1213C20.5587 19.6839 19.7957 20 19 20H10.828C10.0325 19.9998 9.26936 19.6837 8.70689 19.1211C8.70686 19.1211 8.70693 19.1211 8.70689 19.1211L2.29289 12.7071C1.90237 12.3166 1.90237 11.6834 2.29289 11.2929L8.70689 4.87889C8.70693 4.87886 8.70686 4.87893 8.70689 4.87889ZM10.828 6C10.5629 6.00011 10.3087 6.1055 10.1212 6.293L4.41421 12L10.1211 17.7069C10.3085 17.8944 10.5629 17.9999 10.828 18C10.8279 18 10.8281 18 10.828 18H19C19.2652 18 19.5196 17.8946 19.7071 17.7071C19.8946 17.5196 20 17.2652 20 17V7C20 6.73478 19.8946 6.48043 19.7071 6.29289C19.5196 6.10536 19.2652 6 19 6H10.828C10.8281 6 10.8279 6 10.828 6ZM11.2929 9.29289C11.6834 8.90237 12.3166 8.90237 12.7071 9.29289L14 10.5858L15.2929 9.29289C15.6834 8.90237 16.3166 8.90237 16.7071 9.29289C17.0976 9.68342 17.0976 10.3166 16.7071 10.7071L15.4142 12L16.7071 13.2929C17.0976 13.6834 17.0976 14.3166 16.7071 14.7071C16.3166 15.0976 15.6834 15.0976 15.2929 14.7071L14 13.4142L12.7071 14.7071C12.3166 15.0976 11.6834 15.0976 11.2929 14.7071C10.9024 14.3166 10.9024 13.6834 11.2929 13.2929L12.5858 12L11.2929 10.7071C10.9024 10.3166 10.9024 9.68342 11.2929 9.29289Z" fill="black"/>
</svg>
